<svg width="16" height="18" viewBox="0 0 16 18" fill="none" xmlns="http://www.w3.org/2000/svg">
<path d="M1.00087 16.3333C1.00087 16.7013 1.33685 17 1.75083 17H12.4022C13.5651 17 14.0001 16.6756 14.0001 15.5778V14.2933M1.00087 16.3333C1.00087 15.8029 1.23791 15.2942 1.65984 14.9191C2.08177 14.544 2.65403 14.3333 3.25073 14.3333H13.4021C13.6281 14.3333 13.8274 14.32 14.0001 14.2933M1.00087 16.3333V3.84444C1.00087 2.83467 0.928877 1.72089 2.0928 1.19378C2.52078 1 3.08074 1 4.20067 1H13.4001C14.636 1 15 1.38844 15 2.42222V12.9111C15 13.7956 14.718 14.1778 14.0001 14.2933" stroke="black" stroke-opacity="0.5" stroke-width="1.5" stroke-linecap="round" stroke-linejoin="round"/>
</svg>
