<svg width="18" height="19" viewBox="0 0 18 19" fill="none" xmlns="http://www.w3.org/2000/svg">
<path d="M16 17.5C16.2652 17.5 16.5196 17.4007 16.7071 17.2238C16.8946 17.047 17 16.8072 17 16.5571V15.3823C17.004 12.7367 13.026 10.6643 9 10.6643C4.974 10.6643 1 12.7367 1 15.3823V16.5571C1 16.8072 1.10536 17.047 1.29289 17.2238C1.48043 17.4007 1.73478 17.5 2 17.5H16ZM12.604 4.39806C12.604 4.8443 12.5108 5.28617 12.3297 5.69844C12.1485 6.11071 11.8831 6.48531 11.5484 6.80085C11.2138 7.11638 10.8164 7.36668 10.3792 7.53745C9.94193 7.70822 9.47328 7.79611 9 7.79611C8.52672 7.79611 8.05807 7.70822 7.62081 7.53745C7.18355 7.36668 6.78625 7.11638 6.45159 6.80085C6.11692 6.48531 5.85146 6.11071 5.67034 5.69844C5.48922 5.28617 5.396 4.8443 5.396 4.39806C5.396 3.49684 5.77571 2.63253 6.45159 1.99527C7.12747 1.35801 8.04416 1 9 1C9.95584 1 10.8725 1.35801 11.5484 1.99527C12.2243 2.63253 12.604 3.49684 12.604 4.39806Z" stroke="black" stroke-opacity="0.5" stroke-width="1.5" stroke-linecap="round" stroke-linejoin="round"/>
</svg>
