<svg width="18" height="18" viewBox="0 0 18 18" fill="none" xmlns="http://www.w3.org/2000/svg">
<path d="M6.075 16.0491C5.85322 16.2712 5.58985 16.4474 5.29993 16.5677C5.01002 16.6879 4.69924 16.7499 4.38537 16.75H1V13.3865C1 12.753 1.252 12.1448 1.7 11.6968M6.075 16.0491L1.7 11.6968M6.075 16.0491L14.8023 7.31834M1.7 11.6968L10.436 2.95121L11.6838 1.70171C11.9058 1.47934 12.1695 1.30291 12.4597 1.1825C12.75 1.0621 13.0611 1.00008 13.3754 1C13.6896 0.999919 14.0008 1.06177 14.2911 1.18203C14.5815 1.30228 14.8452 1.47858 15.0674 1.70084L16.0526 2.68696C16.5011 3.13543 16.753 3.74368 16.753 4.3779C16.753 5.01212 16.5011 5.62037 16.0526 6.06884L14.8023 7.31834M14.8023 7.31834L10.4351 2.95121" stroke="black" stroke-opacity="0.5" stroke-width="1.5" stroke-linecap="round" stroke-linejoin="round"/>
</svg>
