<svg width="9" height="6" viewBox="0 0 9 6" fill="none" xmlns="http://www.w3.org/2000/svg">
<path fill-rule="evenodd" clip-rule="evenodd" d="M8.83518 0.152764C8.94071 0.250608 9 0.383295 9 0.521647C9 0.659999 8.94071 0.792686 8.83518 0.89053L3.48725 5.84724C3.38168 5.94505 3.23852 6 3.08925 6C2.93998 6 2.79682 5.94505 2.69125 5.84724L0.158024 3.49932C0.0554801 3.40092 -0.00126133 3.26912 2.12805e-05 3.13232C0.00130389 2.99551 0.0605078 2.86465 0.164881 2.76791C0.269255 2.67117 0.410447 2.6163 0.558048 2.61511C0.705649 2.61392 0.847849 2.66651 0.954021 2.76156L3.08925 4.74059L8.03918 0.152764C8.14475 0.0549493 8.28791 0 8.43718 0C8.58645 0 8.72961 0.0549493 8.83518 0.152764Z" fill="white"/>
</svg>
