<svg width="43" height="43" viewBox="0 0 43 43" fill="none" xmlns="http://www.w3.org/2000/svg">
<rect width="43" height="43" rx="10" fill="#FFACDD"/>
<path d="M14.8276 32.6207V23.3838C14.8276 21.6434 14.8276 20.7727 15.0667 19.952C15.3047 19.1301 15.7673 18.4062 16.6959 16.9572L19.6496 12.3421C20.4858 11.0321 20.9051 10.3793 21.5001 10.3793C22.095 10.3793 22.5143 11.0332 23.3505 12.341L26.3042 16.9572C27.2317 18.4062 27.6943 19.1301 27.9334 19.952C28.1725 20.7727 28.1725 21.6423 28.1725 23.3838V32.6207" stroke="white" stroke-width="2.5" stroke-linecap="round" stroke-linejoin="round"/>
<path d="M15.9397 20.3879C16.6425 20.7471 17.5956 21.47 18.4752 21.5C19.6084 21.5356 20.3735 20.5403 21.5 20.5403C22.6266 20.5403 23.3917 21.5356 24.5249 21.4989C25.4045 21.47 26.3587 20.7471 27.0604 20.3879M21.5 21.5V32.6207M19.2759 13.7155H23.7242" stroke="white" stroke-width="2.5" stroke-linecap="round" stroke-linejoin="round"/>
</svg>
