<svg width="121" height="121" viewBox="0 0 121 121" fill="none" xmlns="http://www.w3.org/2000/svg">
<rect width="121" height="121" rx="20" fill="#D9D9D9"/>
<rect x="5.5" y="5.5" width="110" height="110" rx="19.5" fill="#D9D9D9" stroke="white"/>
<path d="M27 40.375C27 38.1538 27.8824 36.0236 29.453 34.453C31.0236 32.8824 33.1538 32 35.375 32H85.625C87.8462 32 89.9764 32.8824 91.547 34.453C93.1176 36.0236 94 38.1538 94 40.375V82.25C94 84.4712 93.1176 86.6014 91.547 88.172C89.9764 89.7426 87.8462 90.625 85.625 90.625H35.375C33.1538 90.625 31.0236 89.7426 29.453 88.172C27.8824 86.6014 27 84.4712 27 82.25V40.375ZM31.1875 78.0625V82.25C31.1875 83.3606 31.6287 84.4257 32.414 85.211C33.1993 85.9963 34.2644 86.4375 35.375 86.4375H85.625C86.7356 86.4375 87.8007 85.9963 88.586 85.211C89.3713 84.4257 89.8125 83.3606 89.8125 82.25V67.5938L73.9963 59.4407C73.6036 59.244 73.159 59.1757 72.7254 59.2456C72.2918 59.3155 71.8911 59.52 71.5801 59.8301L56.0445 75.3657L44.9058 67.9455C44.5036 67.6777 44.0212 67.5573 43.5404 67.6046C43.0595 67.652 42.6099 67.8641 42.2676 68.2051L31.1875 78.0625ZM52.125 50.8438C52.125 49.1779 51.4632 47.5802 50.2853 46.4022C49.1073 45.2243 47.5096 44.5625 45.8438 44.5625C44.1779 44.5625 42.5802 45.2243 41.4022 46.4022C40.2243 47.5802 39.5625 49.1779 39.5625 50.8438C39.5625 52.5096 40.2243 54.1073 41.4022 55.2853C42.5802 56.4632 44.1779 57.125 45.8438 57.125C47.5096 57.125 49.1073 56.4632 50.2853 55.2853C51.4632 54.1073 52.125 52.5096 52.125 50.8438Z" fill="white"/>
</svg>
