<svg width="34" height="20" viewBox="0 0 34 20" fill="none" xmlns="http://www.w3.org/2000/svg">
<path d="M10.398 19C11.198 18.1067 11.598 17.3267 11.598 16.66C11.598 16.1 11.2847 15.6933 10.658 15.44C10.1114 16.4133 9.37138 17.22 8.43805 17.86C7.51805 18.5133 6.39138 18.9067 5.05805 19.04C4.79138 19.0667 4.59138 19.08 4.45805 19.08C3.79138 19.08 3.21805 18.9667 2.73805 18.74C2.25805 18.5133 1.89138 18.2067 1.63805 17.82C1.38471 17.4333 1.25805 17.0133 1.25805 16.56C1.25805 16.0267 1.43805 15.5067 1.79805 15C2.15805 14.48 2.70471 14.04 3.43805 13.68C4.18471 13.32 5.09805 13.0867 6.17805 12.98C6.95138 12.9133 7.59805 12.88 8.11805 12.88C8.37138 12.88 8.71138 12.8933 9.13805 12.92L9.55805 11.74H12.078L11.518 13.34C12.4247 13.6467 13.078 14.08 13.478 14.64C13.8914 15.2 14.098 15.8267 14.098 16.52C14.098 17.36 13.8514 18.1867 13.358 19H10.398ZM14.138 0.799999V11.24H11.738V0.799999H14.138ZM2.57805 6.48C2.57805 7.06667 2.76471 7.53333 3.13805 7.88C3.52471 8.22667 4.04471 8.4 4.69805 8.4H4.89805C5.55138 8.4 6.06471 8.22667 6.43805 7.88C6.82471 7.53333 7.01805 7.06667 7.01805 6.48V5.44C7.01805 4.84 6.82471 4.37333 6.43805 4.04C6.06471 3.69333 5.55138 3.52 4.89805 3.52H4.69805C4.04471 3.52 3.52471 3.69333 3.13805 4.04C2.76471 4.37333 2.57805 4.84 2.57805 5.44V6.48ZM0.178047 5.44C0.178047 4.62667 0.37138 3.91333 0.758047 3.3C1.15805 2.67333 1.69805 2.18667 2.37805 1.84C3.07138 1.49333 3.84471 1.32 4.69805 1.32H4.89805C5.75138 1.32 6.51805 1.49333 7.19805 1.84C7.89138 2.18667 8.43138 2.67333 8.81805 3.3C9.21805 3.91333 9.41805 4.62667 9.41805 5.44V6.48C9.41805 7.28 9.21805 7.99333 8.81805 8.62C8.43138 9.24667 7.89138 9.73333 7.19805 10.08C6.51805 10.4267 5.75138 10.6 4.89805 10.6H4.69805C3.84471 10.6 3.07138 10.4267 2.37805 10.08C1.69805 9.73333 1.15805 9.24667 0.758047 8.62C0.37138 7.99333 0.178047 7.28 0.178047 6.48V5.44ZM4.81805 16.84C6.20471 16.7067 7.29805 16.12 8.09805 15.08C7.36471 15.1067 6.80471 15.14 6.41805 15.18C5.87138 15.2333 5.38471 15.3333 4.95805 15.48C4.54471 15.6267 4.22471 15.7933 3.99805 15.98C3.77138 16.1533 3.65805 16.32 3.65805 16.48C3.65805 16.6133 3.75138 16.7133 3.93805 16.78C4.13805 16.86 4.43138 16.88 4.81805 16.84ZM31.1349 0.799999V8.32H33.0549V10.72H31.1349V18.24H28.7349V0.799999H31.1349ZM27.5349 14.56C25.5483 15.4 23.9016 15.82 22.5949 15.82C20.3816 15.82 18.8016 14.6933 17.8549 12.44C17.4816 11.5333 17.2949 10.4667 17.2949 9.24C17.2949 7.64 17.6149 5.73333 18.2549 3.52H16.8549V1.32H26.4949V3.52H20.7549C20.0349 5.86667 19.6749 7.8 19.6749 9.32C19.6749 10.2 19.8016 10.96 20.0549 11.6C20.3616 12.32 20.7349 12.84 21.1749 13.16C21.6149 13.48 22.1349 13.64 22.7349 13.64C23.3216 13.64 23.9816 13.5133 24.7149 13.26C25.4616 13.0067 26.4016 12.6267 27.5349 12.12V14.56Z" fill="black"/>
</svg>
