<svg width="22" height="23" viewBox="0 0 22 23" fill="none" xmlns="http://www.w3.org/2000/svg">
<path d="M5.81746 0.378937C6.6874 0.670211 7.51472 1.07428 8.27796 1.58065C9.35654 1.30673 10.4657 1.1693 11.5791 1.17165C12.7288 1.17165 13.8381 1.31411 14.8779 1.5795C15.6408 1.07362 16.4677 0.669943 17.3372 0.378937C18.1443 0.106657 19.294 -0.334505 19.9772 0.415701C20.4403 0.925795 20.5561 1.78055 20.6383 2.4331C20.731 3.16148 20.753 4.11044 20.5098 5.0525C21.4396 6.24387 22 7.66501 22 9.21367C22 11.5596 20.7194 13.5966 18.8239 15.0074C17.9113 15.6771 16.8997 16.2026 15.825 16.5652C16.0728 17.1282 16.2106 17.7509 16.2106 18.4046V21.8511C16.2106 22.1558 16.0886 22.4481 15.8715 22.6635C15.6543 22.879 15.3598 23 15.0527 23H8.10543C7.79834 23 7.50383 22.879 7.28669 22.6635C7.06954 22.4481 6.94755 22.1558 6.94755 21.8511V20.7126C5.84177 20.847 4.91431 20.7276 4.1258 20.3955C3.30138 20.0486 2.72707 19.5109 2.29519 18.9962C1.8853 18.5091 1.43835 17.4108 0.792256 17.1971C0.647956 17.1494 0.514532 17.074 0.399604 16.9752C0.284676 16.8763 0.190493 16.756 0.122433 16.6211C-0.0150192 16.3485 -0.0377226 16.033 0.0593175 15.7438C0.156358 15.4546 0.365192 15.2156 0.63988 15.0792C0.914568 14.9428 1.23261 14.9203 1.52404 15.0166C2.29519 15.2716 2.79771 15.8231 3.1416 16.2665C3.69738 16.9788 4.14895 17.9094 5.02894 18.2805C5.39136 18.4333 5.92283 18.5332 6.75418 18.4206L6.94755 18.3816C6.95022 17.7564 7.08142 17.1384 7.33312 16.5652C6.25846 16.2026 5.24685 15.6771 4.33421 15.0074C2.43876 13.5966 1.15815 11.5608 1.15815 9.21367C1.15815 7.66731 1.7174 6.24732 2.64487 5.0571C2.40171 4.11503 2.42255 3.16378 2.51518 2.43425L2.52097 2.39059C2.6055 1.72196 2.70392 0.934986 3.17633 0.415701C3.85948 -0.334505 5.01042 0.107806 5.8163 0.380086L5.81746 0.378937Z" fill="white"/>
</svg>
